# xmcd
#
# Track frame offsets:
#	150
#	9592
#	20937
#	31420
#	44910
#	55262
#	68185
#	84202
#	97137
#	109510
#	122597
#	137990
#	147197
#	159175
#	170382
#	180460
#
# Disc length: 2555 seconds
# Revision: 4
# Processed by: cddbd v1.5.2PL0 Copyright (c) Steve Scherf et al.
# Submitted via: dBpowerAMP V12.0
#
DISCID=d909f910
DTITLE=Bob Wills and His Texas Playboys - Anthology 1935 to1973 [CD2]
DYEAR=1991
DGENRE=Western Swing
TTITLE0=My Window Faces the South (1946)
TTITLE1=Fat Boy Rag (1946)
TTITLE2=Three Guitar Special (1947)
TTITLE3=Deep Water (1947)
TTITLE4=Bubbles in My Beer (1947)
TTITLE5=Blues for Dixie (1947)
TTITLE6=South (1947)
TTITLE7=Cotton Patch Blues (1947)
TTITLE8=Boot Heel Drag (1949)
TTITLE9=Faded Love (1950)
TTITLE10=St. Louis Blues (1954)
TTITLE11=Cadillac in Model ''A'' (1954)
TTITLE12=Heart to Heart Talk (1960)
TTITLE13=The Jobob Rag (1961)
TTITLE14=Blue Bonnet Lane (1973)
TTITLE15=What Makes Bob Holler (1973)
EXTD=
EXTT0=
EXTT1=
EXTT2=
EXTT3=
EXTT4=
EXTT5=
EXTT6=
EXTT7=
EXTT8=
EXTT9=
EXTT10=
EXTT11=
EXTT12=
EXTT13=
EXTT14=
EXTT15=
PLAYORDER=
